<svg xmlns="http://www.w3.org/2000/svg" viewBox="0 0 24 30" fill="none" x="0px" y="0px"><path fill-rule="evenodd" clip-rule="evenodd" d="M13.2071 7.79289C13.5976 8.18342 13.5976 8.81658 13.2071 9.20711L8.70711 13.7071C8.31658 14.0976 7.68342 14.0976 7.29289 13.7071L4.79289 11.2071C4.40237 10.8166 4.40237 10.1834 4.79289 9.79289C5.18342 9.40237 5.81658 9.40237 6.20711 9.79289L8 11.5858L11.7929 7.79289C12.1834 7.40237 12.8166 7.40237 13.2071 7.79289Z" fill="black"/><path fill-rule="evenodd" clip-rule="evenodd" d="M17 5V6H19.7635C20.1167 6 20.4438 6.18633 20.6238 6.4902L22.8603 10.2642C22.9517 10.4186 23 10.5947 23 10.774V17C23 17.5523 22.5523 18 22 18H20.8293C20.9398 18.3128 21 18.6494 21 19C21 20.6569 19.6569 22 18 22C16.3431 22 15 20.6569 15 19H10C10 20.6569 8.65685 22 7 22C5.34315 22 4 20.6569 4 19H3C1.89543 19 1 18.1046 1 17V5C1 3.89543 1.89543 3 3 3H15C16.1046 3 17 3.89543 17 5ZM3 5H15V17H9.23611C8.68679 16.3863 7.8885 16 7 16C6.1115 16 5.31321 16.3863 4.76389 17H3V5ZM21 16V11.0481L19.1937 8H17V16H21ZM18 18C17.4477 18 17 18.4477 17 19C17 19.5523 17.4477 20 18 20C18.5523 20 19 19.5523 19 19C19 18.4477 18.5523 18 18 18ZM8 19C8 19.5523 7.55228 20 7 20C6.44772 20 6 19.5523 6 19C6 18.4477 6.44772 18 7 18C7.55228 18 8 18.4477 8 19Z" fill="black"/><text x="0" y="39" fill="#000000" font-size="5px" font-weight="bold" font-family="'Helvetica Neue', Helvetica, Arial-Unicode, Arial, Sans-serif">Created by Jake Park</text><text x="0" y="44" fill="#000000" font-size="5px" font-weight="bold" font-family="'Helvetica Neue', Helvetica, Arial-Unicode, Arial, Sans-serif">from the Noun Project</text></svg>